#!OML:ASF I:\golf\golf\golf 2\Subject 1\2002-09-07\Subject1.ASF
:FULLY-SPECIFIED
:DEGREES
215
root -7.54518 17.785 3.22623 7.07364 44.4278 -9.70567
lowerback 2.99714 -10.8493 -12.4508
upperback -0.231518 -14.7943 -1.61906
thorax 0.749818 -7.35217 4.97644
lowerneck -6.56629 21.3484 1.69013
upperneck 10.6755 31.494 -17.6522
head 7.54043 14.1236 -2.46716
rclavicle 2.66968e-013 -3.18055e-015
rhumerus 24.4854 -25.9608 -53.245
rradius 110.135
rwrist 18.643
rhand -62.9939 80.0643
rfingers 7.12502
rthumb -34.9971 53.5075
lclavicle 2.66968e-013 -3.18055e-015
lhumerus 110.763 -41.0386 46.9331
lradius 36.843
lwrist -29.4399
lhand 131.997 167.558
lfingers 7.12502
lthumb -200.671 196.477
rfemur -34.4822 20.4017 21.8405
rtibia 33.2093
rfoot -9.29958 20.1082
rtoes 25.9021
lfemur -0.830689 9.92322 1.6407
ltibia 20.2167
lfoot -6.88571 25.7229
ltoes -22.5827
216
root -7.53804 17.7929 3.22721 7.32523 44.3515 -9.33319
lowerback 2.93052 -10.6129 -12.5319
upperback -0.201792 -14.4641 -1.99373
thorax 0.682062 -7.17721 4.65523
lowerneck -6.08278 21.1097 2.70927
upperneck 10.8471 31.1344 -17.7892
head 7.65699 13.9953 -2.6861
rclavicle 6.87795e-014 -6.36111e-015
rhumerus 23.4087 -26.6112 -52.4827
rradius 110.125
rwrist 18.4446
rhand -62.9351 80.3794
rfingers 7.12502
rthumb -34.9413 53.8097
lclavicle 6.87795e-014 -6.36111e-015
lhumerus 111.474 -41.6692 46.2315
lradius 36.8721
lwrist -28.906
lhand 132.022 167.882
lfingers 7.12502
lthumb -200.647 196.803
rfemur -34.4306 20.3641 21.5458
rtibia 33.1831
rfoot -9.30904 20.1957
rtoes 25.912
lfemur -0.739846 10.303 1.34566
ltibia 20.2304
lfoot -6.8417 25.3774
ltoes -22.5719
217
root -7.53157 17.7987 3.22512 7.40141 44.3027 -9.13236
lowerback 3.09846 -10.8633 -12.7378
upperback -0.136877 -14.8266 -1.61465
thorax 0.871629 -7.37805 5.12101
lowerneck -6.70907 21.4178 1.16886
upperneck 10.6375 31.6112 -17.5876
head 7.4736 14.1619 -2.37893
rclavicle -2.56432e-014 2.22639e-014
rhumerus 24.4138 -26.1068 -52.2464
rradius 109.938
rwrist 18.0222
rhand -62.838 80.0226
rfingers 7.12502
rthumb -34.8492 53.4314
lclavicle -2.56432e-014 2.22639e-014
lhumerus 110.974 -40.693 46.7992
lradius 36.8755
lwrist -27.7389
lhand 132.588 167.812
lfingers 7.12502
lthumb -200.103 196.792
rfemur -34.2928 20.3054 21.418
rtibia 33.1218
rfoot -9.3982 20.2332
rtoes 25.3913
lfemur -0.75365 10.4784 1.18412
ltibia 20.3099
lfoot -5.89389 25.3948
ltoes -24.6748
218
root -7.52936 17.7969 3.21887 7.03692 44.2807 -9.51944
lowerback 3.23224 -10.6358 -12.3189
upperback -0.138246 -14.5332 -1.83958
thorax 0.584517 -7.21383 4.75696
lowerneck -5.86962 21.249 2.25698
upperneck 10.6238 31.2991 -17.8074
head 7.50072 14.0929 -2.66397
rclavicle 7.93151e-014 -6.99722e-014
rhumerus 23.256 -26.5632 -51.5398
rradius 110.004
rwrist 17.6088
rhand -62.9914 79.4406
rfingers 7.12502
rthumb -34.9948 52.8833
lclavicle 7.93151e-014 -6.99722e-014
lhumerus 111.621 -41.2108 45.9859
lradius 37.2928
lwrist -25.1652
lhand 133.916 167.343
lfingers 7.12502
lthumb -198.826 196.452
rfemur -34.1323 20.3542 21.7497
rtibia 33.0297
rfoot -9.39842 20.1759
rtoes 24.6492
lfemur -0.918433 10.5339 1.51513
ltibia 20.4572
lfoot -4.45117 25.6678
ltoes -27.5177
219
root -7.52919 17.8009 3.2139 6.89826 44.1838 -9.67719
lowerback 3.30688 -10.522 -12.1372
upperback -0.129225 -14.3878 -1.91902
thorax 0.464687 -7.13509 4.6189
lowerneck -5.52886 21.1827 2.69113
upperneck 10.598 31.1966 -17.9986
head 7.52433 14.0703 -2.80338
rclavicle -5.1684e-014 6.36111e-015
rhumerus 22.7677 -26.6951 -51.1628
rradius 109.969
rwrist 17.285
rhand -63.0342 79.1195
rfingers 7.12502
rthumb -35.0353 52.5717
lclavicle -5.1684e-014 6.36111e-015
lhumerus 111.868 -41.3571 45.6104
lradius 37.6732
lwrist -22.879
lhand 134.949 166.451
lfingers 7.12502
lthumb -197.833 195.653
rfemur -34.0722 20.5491 21.8359
rtibia 32.9381
rfoot -9.33075 20.0642
rtoes 24.1972
lfemur -1.01598 10.775 1.63592
ltibia 20.6101
lfoot -4.46869 25.7185
ltoes -26.9392
220
root -7.53128 17.8061 3.2078 7.17151 44.0417 -9.35814
lowerback 3.34593 -10.4591 -12.384
upperback -0.144722 -14.3176 -1.95522
thorax 0.464075 -7.0975 4.71511
lowerneck -5.3709 21.1613 2.56957
upperneck 10.4351 31.1289 -18.0094
head 7.42073 14.0608 -2.83282
rclavicle 1.0138e-013 3.18055e-014
rhumerus 22.6047 -26.7016 -50.9324
rradius 109.844
rwrist 16.957
rhand -62.8252 78.7219
rfingers 7.12502
rthumb -34.8371 52.128
lclavicle 1.0138e-013 3.18055e-014
lhumerus 111.79 -41.4799 45.7064
lradius 37.8099
lwrist -21.966
lhand 135.126 165.767
lfingers 7.12502
lthumb -197.662 194.985
rfemur -34.149 20.7935 21.483
rtibia 32.858
rfoot -9.29458 19.9299
rtoes 23.9266
lfemur -0.993912 10.8428 1.33565
ltibia 20.7477
lfoot -5.94756 25.4583
ltoes -23.1466
221
root -7.53018 17.8037 3.19894 7.15861 44.0366 -9.44208
lowerback 3.37285 -10.4319 -12.3351
upperback -0.129424 -14.2842 -1.87719
thorax 0.468533 -7.08385 4.77501
lowerneck -5.18476 21.1525 2.3779
upperneck 10.2051 31.0635 -18.0113
head 7.27887 14.0597 -2.86021
rclavicle 5.1684e-015 3.49861e-014
rhumerus 22.5406 -26.6543 -50.6995
rradius 109.747
rwrist 16.5691
rhand -62.7081 77.7269
rfingers 7.12502
rthumb -34.7259 51.1072
lclavicle 5.1684e-015 3.49861e-014
lhumerus 111.632 -41.5544 45.8584
lradius 37.7173
lwrist -22.5467
lhand 134.623 166.505
lfingers 7.12502
lthumb -198.146 195.679
rfemur -34.2153 20.8432 21.4793
rtibia 32.8094
rfoot -9.17839 19.932
rtoes 24.0797
lfemur -0.838647 10.6407 1.37783
ltibia 20.8231
lfoot -7.75184 24.8273
ltoes -18.8148
222
root -7.52191 17.8042 3.19075 7.00282 44.1175 -9.72748
lowerback 3.34157 -10.4624 -12.0733
upperback -0.0917483 -14.312 -1.74038
thorax 0.50393 -7.10538 4.77235
lowerneck -5.14077 21.1801 2.32495
upperneck 10.1996 31.1318 -18.1595
head 7.29624 14.0836 -2.88852
rclavicle 3.33958e-014 4.13472e-014
rhumerus 22.6163 -26.4911 -50.4847
rradius 109.652
rwrist 16.0051
rhand -62.7005 77.073
rfingers 7.12502
rthumb -34.7187 50.4517
lclavicle 3.33958e-014 4.13472e-014
lhumerus 111.459 -41.3761 45.8772
lradius 37.6387
lwrist -23.0509
lhand 134.295 167.746
lfingers 7.12502
lthumb -198.461 196.89
rfemur -34.2297 20.6667 21.6862
rtibia 32.7896
rfoot -9.12159 20.0652
rtoes 24.1765
lfemur -0.777331 10.612 1.58228
ltibia 20.8168
lfoot -8.33475 24.4076
ltoes -17.402
223
root -7.51512 17.8064 3.1783 7.10109 44.1455 -9.68583
lowerback 3.34472 -10.4588 -11.9843
upperback -0.0686654 -14.3038 -1.7189
thorax 0.509799 -7.10348 4.74954
lowerneck -5.3333 21.1774 2.42611
upperneck 10.5582 31.2205 -18.1744
head 7.47432 14.0803 -2.84847
rclavicle -2.8625e-014 -4.13472e-014
rhumerus 22.5427 -26.3484 -50.3003
rradius 109.538
rwrist 15.3682
rhand -62.6577 77.1747
rfingers 7.12502
rthumb -34.6782 50.5441
lclavicle -2.8625e-014 -4.13472e-014
lhumerus 111.452 -41.1857 45.6966
lradius 37.6633
lwrist -22.7366
lhand 134.452 168.207
lfingers 7.12502
lthumb -198.311 197.366
rfemur -34.2966 20.4774 21.6171
rtibia 32.7655
rfoot -9.18091 20.1552
rtoes 23.8441
lfemur -0.86865 10.6645 1.46911
ltibia 20.7747
lfoot -8.29084 24.4127
ltoes -17.4158
224
root -7.50996 17.8095 3.16144 7.28848 44.1839 -9.5072
lowerback 3.3731 -10.4196 -11.9263
upperback 0.0411643 -14.2447 -1.74025
thorax 0.581598 -7.0821 4.69653
lowerneck -5.86666 21.14 2.26969
upperneck 10.9265 31.2453 -17.9675
head 7.62718 14.0314 -2.7014
rclavicle -5.1684e-014 1.27222e-014
rhumerus 22.6125 -26.3078 -50.2702
rradius 109.375
rwrist 14.937
rhand -62.6117 77.2014
rfingers 7.12502
rthumb -34.6345 50.5607
lclavicle -5.1684e-014 1.27222e-014
lhumerus 111.595 -41.0676 45.5461
lradius 37.6947
lwrist -22.3708
lhand 134.887 168.228
lfingers 7.12502
lthumb -197.892 197.425
rfemur -34.3787 20.305 21.4169
rtibia 32.7282
rfoot -9.14927 20.1971
rtoes 23.8424
lfemur -0.979202 10.6044 1.21753
ltibia 20.7129
lfoot -8.4569 24.5197
ltoes -17.111
225
root -7.50547 17.8177 3.14553 7.4529 44.2459 -9.3692
lowerback 3.38436 -10.4192 -11.8983
upperback 0.211764 -14.2318 -1.64505
thorax 0.77198 -7.09455 4.75747
lowerneck -6.60128 21.1882 1.74449
upperneck 11.1191 31.3936 -17.8027
head 7.72098 14.0279 -2.50094
rclavicle -3.85642e-014 -4.45278e-014
rhumerus 23.1263 -26.2087 -50.4056
rradius 109.16
rwrist 14.5972
rhand -62.7887 76.6134
rfingers 7.12502
rthumb -34.8024 50.0114
lclavicle -3.85642e-014 -4.45278e-014
lhumerus 111.635 -40.7968 45.6273
lradius 37.5886
lwrist -22.3203
lhand 135.268 168.319
lfingers 7.12502
lthumb -197.526 197.549
rfemur -34.4659 20.2049 21.2284
rtibia 32.6861
rfoot -9.06562 20.1988
rtoes 24.1018
lfemur -1.10585 10.5862 1.00847
ltibia 20.6625
lfoot -8.4615 24.608
ltoes -17.3712
